<?xml version="1.0" encoding="utf-8"?>
<!-- Generator: Adobe Illustrator 25.0.0, SVG Export Plug-In . SVG Version: 6.00 Build 0)  -->
<svg version="1.1" id="Warstwa_1" xmlns="http://www.w3.org/2000/svg" xmlns:xlink="http://www.w3.org/1999/xlink" x="0px" y="0px"
	 viewBox="0 0 50 50" style="enable-background:new 0 0 50 50;" xml:space="preserve">
<style type="text/css">
	.st0{filter:url(#Adobe_OpacityMaskFilter);}
	.st1{mask:url(#SVGID_1_);fill:url(#SVGID_2_);}
</style>
<defs>
	<filter id="Adobe_OpacityMaskFilter" filterUnits="userSpaceOnUse" x="0" y="0" width="50" height="50">
		
			<feColorMatrix  type="matrix" values="-1 0 0 0 1  0 -1 0 0 1  0 0 -1 0 1  0 0 0 1 0" color-interpolation-filters="sRGB" result="source"/>
	</filter>
</defs>
<mask maskUnits="userSpaceOnUse" x="0" y="0" width="50" height="50" id="SVGID_1_">
	<g class="st0">
		<path d="M7.38,25.63c0-4.16,0-8.31,0-12.47c0-3.6,2.35-6.43,5.88-7.09c0.43-0.08,0.87-0.11,1.31-0.11c4.34-0.01,8.68-0.01,13.02,0
			c1.05,0,1.72,0.62,1.67,1.54c-0.04,0.71-0.58,1.29-1.29,1.35c-0.18,0.02-0.36,0.01-0.55,0.01c-4.25,0-8.49,0-12.74,0
			c-2.09,0-3.7,1.14-4.22,3.01c-0.12,0.42-0.16,0.87-0.17,1.3c-0.01,8.31-0.01,16.62,0,24.93c0,2.54,1.79,4.31,4.34,4.31
			c6.42,0,12.83,0,19.25,0c2.56,0,4.35-1.78,4.35-4.35c0.01-6.2,0-12.41,0-18.61c0-0.86,0.46-1.48,1.17-1.61
			c0.83-0.15,1.58,0.39,1.72,1.23c0.02,0.13,0.02,0.27,0.02,0.41c0,6.23,0.03,12.47-0.01,18.7c-0.02,3.04-1.48,5.27-4.26,6.53
			c-0.81,0.36-1.75,0.58-2.64,0.58c-6.66,0.05-13.32,0.05-19.98,0.02c-3.72-0.02-6.84-3.14-6.87-6.86
			C7.36,34.19,7.38,29.91,7.38,25.63C7.38,25.63,7.38,25.63,7.38,25.63z"/>
		<path d="M35.43,8.74c0-0.57,0-1.1,0-1.63c0-1.85,0.39-2.54,1.44-2.55c1.07-0.01,1.47,0.7,1.47,2.57c0,0.53,0,1.05,0,1.63
			c0.92,0,1.8-0.01,2.67,0c0.88,0.01,1.51,0.61,1.52,1.42c0.02,0.81-0.58,1.46-1.4,1.48c-0.45,0.01-0.91,0-1.36,0
			c-0.45,0-0.91,0-1.43,0c0,0.27,0,0.52,0,0.77c0,0.67,0.01,1.33-0.01,2c-0.02,0.82-0.66,1.44-1.46,1.43
			c-0.79-0.01-1.43-0.64-1.44-1.45c-0.01-0.89,0-1.79,0-2.75c-0.59,0-1.16,0-1.73,0c-0.32,0-0.64,0-0.96,0
			c-0.86-0.01-1.5-0.62-1.51-1.43c-0.01-0.82,0.6-1.45,1.46-1.48c0.8-0.02,1.61-0.01,2.41-0.01C35.19,8.76,35.28,8.75,35.43,8.74z"
			/>
		<path d="M27.05,31.22c1.88,0,3.76-0.01,5.64,0c0.67,0,1.2,0.43,1.38,1.05c0.17,0.6-0.05,1.26-0.59,1.58
			c-0.26,0.15-0.6,0.26-0.9,0.26c-3.67,0.02-7.34,0.02-11.01,0.01c-0.92,0-1.58-0.63-1.57-1.47c0.01-0.85,0.64-1.43,1.59-1.43
			C23.41,31.21,25.23,31.21,27.05,31.22C27.05,31.21,27.05,31.22,27.05,31.22z"/>
		<path d="M27.07,20.1c-1.84,0-3.67,0.01-5.51,0c-0.96-0.01-1.63-0.69-1.56-1.56c0.05-0.74,0.61-1.31,1.36-1.33
			c0.68-0.03,1.36-0.01,2.05-0.01c3.05,0,6.1,0,9.15,0c1.11,0,1.82,0.92,1.5,1.91c-0.2,0.62-0.77,1-1.52,1
			C30.71,20.11,28.89,20.1,27.07,20.1z"/>
		<path d="M27.1,24.21c1.8,0,3.61,0,5.41,0c0.96,0,1.63,0.61,1.62,1.46c-0.01,0.83-0.67,1.45-1.6,1.45c-3.66,0.01-7.31,0.01-10.97,0
			c-0.78,0-1.38-0.46-1.53-1.12c-0.15-0.67,0.15-1.36,0.76-1.64c0.24-0.11,0.53-0.15,0.79-0.15C23.43,24.2,25.26,24.21,27.1,24.21z"
			/>
		<path d="M15.85,24.21c0.83-0.01,1.47,0.63,1.47,1.45c0,0.79-0.64,1.44-1.43,1.45c-0.79,0.01-1.48-0.68-1.48-1.47
			C14.41,24.85,15.06,24.21,15.85,24.21z"/>
		<path d="M17.32,18.66c-0.01,0.79-0.66,1.44-1.45,1.44c-0.79,0-1.48-0.69-1.47-1.48c0.01-0.79,0.66-1.43,1.46-1.43
			C16.69,17.2,17.33,17.84,17.32,18.66z"/>
		<path d="M17.32,32.68c-0.01,0.79-0.66,1.44-1.45,1.44c-0.79,0-1.48-0.69-1.46-1.48c0.01-0.81,0.68-1.44,1.5-1.42
			C16.71,31.24,17.33,31.88,17.32,32.68z"/>
	</g>
</mask>
<linearGradient id="SVGID_2_" gradientUnits="userSpaceOnUse" x1="0" y1="25" x2="50" y2="25">
	<stop  offset="0" style="stop-color:#F7931E"/>
	<stop  offset="0.1815" style="stop-color:#F79C1E"/>
	<stop  offset="0.4789" style="stop-color:#F9B51F"/>
	<stop  offset="0.8531" style="stop-color:#FBDC20"/>
	<stop  offset="1" style="stop-color:#FCEE21"/>
</linearGradient>
<rect class="st1" width="50" height="50"/>
<g>
</g>
<g>
</g>
<g>
</g>
<g>
</g>
<g>
</g>
</svg>
