<?xml version="1.0" encoding="utf-8"?>
<!-- Generator: Adobe Illustrator 25.0.0, SVG Export Plug-In . SVG Version: 6.00 Build 0)  -->
<svg version="1.1" id="Warstwa_1" xmlns="http://www.w3.org/2000/svg" xmlns:xlink="http://www.w3.org/1999/xlink" x="0px" y="0px"
	 viewBox="0 0 20 20" style="enable-background:new 0 0 20 20;" xml:space="preserve">
<style type="text/css">
	.st0{fill:#FFFFFF;}
</style>
<path class="st0" d="M17.9,19c-0.3,0-0.6-0.1-0.8-0.3L10,11.6l-7.1,7.1C2.7,18.9,2.4,19,2.1,19c-0.3,0-0.6-0.1-0.8-0.3
	c-0.4-0.4-0.4-1.1,0-1.6L8.4,10L1.3,2.9c-0.4-0.4-0.4-1.1,0-1.6C1.5,1.1,1.8,1,2.1,1c0.3,0,0.6,0.1,0.8,0.3L10,8.4l7.1-7.1
	C17.3,1.1,17.6,1,17.9,1c0.3,0,0.6,0.1,0.8,0.3c0.4,0.4,0.4,1.1,0,1.6L11.6,10l7.1,7.1c0.2,0.2,0.3,0.5,0.3,0.8
	c0,0.3-0.1,0.6-0.3,0.8S18.2,19,17.9,19z"/>
</svg>
