<?xml version="1.0" encoding="utf-8"?>
<!-- Generator: Adobe Illustrator 25.0.0, SVG Export Plug-In . SVG Version: 6.00 Build 0)  -->
<svg version="1.1" id="Warstwa_1" xmlns="http://www.w3.org/2000/svg" xmlns:xlink="http://www.w3.org/1999/xlink" x="0px" y="0px"
	 viewBox="0 0 25 25" style="enable-background:new 0 0 25 25;" xml:space="preserve">
<style type="text/css">
	.st0{fill:url(#SVGID_1_);}
	.st1{fill:url(#SVGID_2_);}
	.st2{fill:url(#SVGID_3_);}
	.st3{fill:url(#SVGID_4_);}
	.st4{fill:#FFFFFF;}
	.st5{fill:url(#SVGID_5_);}
	.st6{fill:url(#SVGID_6_);}
	.st7{filter:url(#Adobe_OpacityMaskFilter);}
	.st8{fill:#F2F2F2;}
	.st9{mask:url(#SVGID_7_);fill:url(#SVGID_8_);}
</style>
<linearGradient id="SVGID_1_" gradientUnits="userSpaceOnUse" x1="-251.3253" y1="-50.9014" x2="-150.6887" y2="49.9788">
	<stop  offset="0" style="stop-color:#F7931E"/>
	<stop  offset="0.1815" style="stop-color:#F79C1E"/>
	<stop  offset="0.4789" style="stop-color:#F9B51F"/>
	<stop  offset="0.8531" style="stop-color:#FBDC20"/>
	<stop  offset="1" style="stop-color:#FCEE21"/>
</linearGradient>
<path class="st0" d="M-133.3,3.73c-2.44-7.93-6.06-15.49-10.7-22.36c-9.22-13.65-22.41-24.49-37.62-30.83
	c-10.2-4.25-21.28-6.46-32.46-7.1c-9.7-0.56-19.49,0-29.07,1.59c-2.66,0.44-5.53,1.09-7.23,3.18c-1.23,1.5-1.63,3.5-1.94,5.42
	c-2.16,13.31-1.15,26.66-1.15,40.06c0,41.06,33.31,74.33,74.38,74.27c5.63-0.01,10.17-4.64,10.17-10.27V28.62c0,0,39.35,0,39.35,0
	C-128.08,28.58-132.68,5.76-133.3,3.73z M-179.82,24.61h-4.61c-1.11,0-2.15-0.56-2.77-1.49L-202.1,0.6
	c-1.81-2.74-6.08-1.46-6.08,1.83v18.86c0,1.83-1.48,3.32-3.32,3.32h-3.07c-1.83,0-3.32-1.48-3.32-3.32v-41.82
	c0-1.83,1.48-3.32,3.32-3.32h4.6c1.11,0,2.15,0.56,2.77,1.49l14.9,22.57c1.81,2.74,6.08,1.46,6.08-1.83v-18.91
	c0-1.83,1.48-3.32,3.32-3.32h3.07c1.83,0,3.32,1.48,3.32,3.32v41.82C-176.51,23.12-177.99,24.61-179.82,24.61z"/>
<g>
	<g>
		<linearGradient id="SVGID_2_" gradientUnits="userSpaceOnUse" x1="-90" y1="12.5" x2="-65" y2="12.5">
			<stop  offset="0" style="stop-color:#F7931E"/>
			<stop  offset="0.1815" style="stop-color:#F79C1E"/>
			<stop  offset="0.4789" style="stop-color:#F9B51F"/>
			<stop  offset="0.8531" style="stop-color:#FBDC20"/>
			<stop  offset="1" style="stop-color:#FCEE21"/>
		</linearGradient>
		<path class="st1" d="M-74.99,8.91c0-0.21,0-0.41,0-0.62c-0.01-1.08-0.72-2.04-1.74-2.37c-1.04-0.33-2.17,0.04-2.81,0.93
			c-0.45,0.62-0.52,1.32-0.46,2.06H-74.99z M-80.01,10c0,0.34,0,0.68,0,1.02c0,0.31-0.2,0.53-0.48,0.53c-0.28,0-0.47-0.22-0.47-0.53
			c0-0.34,0-0.68,0-1.03c-0.48,0.14-0.8,0.72-0.7,1.26c0.11,0.63,0.64,1.05,1.26,1.01c0.6-0.04,1.09-0.54,1.11-1.14
			C-79.28,10.58-79.61,10.06-80.01,10z M-74.03,9.99v0.18c0,0.3,0.01,0.61,0,0.91c-0.01,0.36-0.38,0.58-0.7,0.41
			c-0.17-0.09-0.26-0.24-0.26-0.44c0-0.35,0-0.7,0-1.06c-0.46,0.13-0.78,0.68-0.71,1.21c0.08,0.6,0.57,1.05,1.16,1.06
			c0.61,0.01,1.1-0.41,1.21-1.03C-73.24,10.7-73.54,10.14-74.03,9.99z M-77.5,0C-84.4,0-90,5.6-90,12.5S-84.4,25-77.5,25
			S-65,19.4-65,12.5S-70.6,0-77.5,0z M-71.15,20.16c-4.24,0-8.47,0-12.71,0c-0.21,0-0.24-0.03-0.22-0.23
			c0.14-1.76,0.27-3.53,0.41-5.29c0.14-1.84,0.28-3.69,0.42-5.53c0.01-0.15,0.07-0.2,0.21-0.2c0.63,0.01,1.27,0,1.9,0h0.17
			c0-0.22,0-0.43,0-0.63c0.01-1.53,1.03-2.87,2.5-3.3c0.21-0.06,0.42-0.1,0.64-0.14h0.66c0.03,0.01,0.05,0.02,0.08,0.03
			c1.3,0.19,2.22,0.88,2.77,2.06c0.21,0.44,0.29,0.92,0.29,1.41c0,0.19,0,0.37,0,0.57h0.18c0.63,0,1.27,0,1.9,0
			c0.13,0,0.19,0.04,0.2,0.18c0.12,1.65,0.25,3.3,0.38,4.95c0.15,1.96,0.3,3.92,0.45,5.89C-70.91,20.13-70.94,20.16-71.15,20.16z"/>
	</g>
</g>
<g>
	<linearGradient id="SVGID_3_" gradientUnits="userSpaceOnUse" x1="-40.2729" y1="5.4053" x2="-24.7271" y2="5.4053">
		<stop  offset="0" style="stop-color:#F7931E"/>
		<stop  offset="0.1815" style="stop-color:#F79C1E"/>
		<stop  offset="0.4789" style="stop-color:#F9B51F"/>
		<stop  offset="0.8531" style="stop-color:#FBDC20"/>
		<stop  offset="1" style="stop-color:#FCEE21"/>
	</linearGradient>
	<path class="st2" d="M-31.53,2.6c0.23,0.06,0.46,0.1,0.68,0.19c0.99,0.38,1.62,1.09,1.91,2.1c0.05,0.19,0.13,0.23,0.31,0.23
		c0.58-0.02,1.16,0.01,1.71,0.22c0.96,0.36,1.66,1.01,2.09,1.94c0.25,0.54,0,0.93-0.61,0.93c-4.3,0-8.61,0-12.91,0
		c-0.43,0-0.86,0-1.29,0c-0.5,0-0.77-0.41-0.56-0.86c0.65-1.41,1.76-2.15,3.31-2.23c0.21-0.01,0.41-0.01,0.62,0
		c0.12,0.01,0.16-0.04,0.19-0.15c0.32-1.16,1.05-1.92,2.21-2.26c0.13-0.04,0.27-0.07,0.41-0.1C-32.82,2.6-32.18,2.6-31.53,2.6z
		 M-34.92,5.1c1.63,0,3.23,0,4.85,0c-0.27-0.7-0.72-1.2-1.45-1.29c-0.64-0.08-1.3-0.08-1.94,0C-34.2,3.9-34.66,4.4-34.92,5.1z"/>
	<linearGradient id="SVGID_4_" gradientUnits="userSpaceOnUse" x1="-38.9068" y1="15.8894" x2="-26.0838" y2="15.8894">
		<stop  offset="0" style="stop-color:#F7931E"/>
		<stop  offset="0.1815" style="stop-color:#F79C1E"/>
		<stop  offset="0.4789" style="stop-color:#F9B51F"/>
		<stop  offset="0.8531" style="stop-color:#FBDC20"/>
		<stop  offset="1" style="stop-color:#FCEE21"/>
	</linearGradient>
	<path class="st3" d="M-26.08,9.38c-0.06,0.8-0.11,1.59-0.17,2.38c-0.08,1.18-0.17,2.36-0.25,3.55c-0.11,1.55-0.22,3.11-0.33,4.66
		c-0.02,0.34-0.03,0.68-0.09,1.02c-0.14,0.79-0.84,1.4-1.64,1.4c-2.62,0.01-5.23,0.01-7.85,0c-0.88,0-1.62-0.73-1.68-1.61
		c-0.16-2.23-0.31-4.46-0.47-6.69c-0.11-1.52-0.22-3.04-0.33-4.57c0-0.04,0-0.09,0-0.15C-34.64,9.38-30.37,9.38-26.08,9.38z
		 M-33.93,15.6C-33.93,15.6-33.93,15.6-33.93,15.6c-0.05-1.04-0.1-2.08-0.16-3.12c-0.02-0.33-0.29-0.57-0.6-0.55
		c-0.31,0.01-0.55,0.26-0.56,0.58c0,0.1,0.01,0.21,0.01,0.31c0.06,1.22,0.12,2.44,0.18,3.66c0.04,0.74,0.07,1.48,0.11,2.22
		c0.02,0.34,0.28,0.58,0.6,0.57c0.31-0.01,0.55-0.27,0.55-0.6c0-0.1-0.01-0.21-0.01-0.31C-33.83,17.44-33.88,16.52-33.93,15.6z
		 M-31.07,15.59C-31.07,15.59-31.07,15.59-31.07,15.59c-0.05,0.92-0.09,1.84-0.14,2.76c0,0.1-0.01,0.19-0.01,0.29
		c0,0.35,0.23,0.61,0.55,0.63c0.33,0.02,0.59-0.23,0.61-0.59c0.06-1.22,0.13-2.44,0.19-3.66c0.04-0.83,0.09-1.66,0.12-2.49
		c0.01-0.34-0.24-0.6-0.57-0.61c-0.32-0.01-0.57,0.24-0.59,0.57C-30.97,13.52-31.02,14.56-31.07,15.59z"/>
</g>
<path class="st4" d="M24.37,4.17c-0.11-0.31-0.32-0.54-0.55-0.76c-0.21-0.2-0.41-0.4-0.61-0.61C23,2.57,22.77,2.36,22.46,2.25
	c0.64,0,1.28,0,1.92,0C24.37,2.89,24.37,3.53,24.37,4.17z"/>
<g>
	<linearGradient id="SVGID_5_" gradientUnits="userSpaceOnUse" x1="46.701" y1="12.5" x2="68.299" y2="12.5">
		<stop  offset="0" style="stop-color:#F7931E"/>
		<stop  offset="0.1815" style="stop-color:#F79C1E"/>
		<stop  offset="0.4789" style="stop-color:#F9B51F"/>
		<stop  offset="0.8531" style="stop-color:#FBDC20"/>
		<stop  offset="1" style="stop-color:#FCEE21"/>
	</linearGradient>
	<path class="st5" d="M68.3,12.75c-0.14,0.53-0.52,0.9-0.87,1.29c-1.42,1.57-3,2.95-4.86,4c-1.32,0.75-2.72,1.26-4.25,1.4
		c-1.47,0.13-2.88-0.09-4.25-0.63c-1.94-0.76-3.6-1.94-5.1-3.36c-0.66-0.63-1.28-1.31-1.88-1.99c-0.5-0.56-0.51-1.31-0.04-1.87
		c1.6-1.93,3.43-3.57,5.65-4.76c1.34-0.71,2.75-1.19,4.28-1.29c1.71-0.11,3.31,0.3,4.85,1.04c1.97,0.94,3.64,2.29,5.14,3.86
		c0.21,0.22,0.42,0.46,0.62,0.69c0.3,0.33,0.6,0.67,0.72,1.12C68.3,12.41,68.3,12.58,68.3,12.75z M62.15,12.51
		c0.01-2.57-2.07-4.65-4.64-4.65c-2.57,0-4.65,2.07-4.65,4.64c0,2.57,2.07,4.65,4.64,4.66C60.07,17.16,62.15,15.08,62.15,12.51z"/>
	<linearGradient id="SVGID_6_" gradientUnits="userSpaceOnUse" x1="54.1809" y1="12.5007" x2="60.8317" y2="12.5007">
		<stop  offset="0" style="stop-color:#F7931E"/>
		<stop  offset="0.1815" style="stop-color:#F79C1E"/>
		<stop  offset="0.4789" style="stop-color:#F9B51F"/>
		<stop  offset="0.8531" style="stop-color:#FBDC20"/>
		<stop  offset="1" style="stop-color:#FCEE21"/>
	</linearGradient>
	<path class="st6" d="M60.83,12.49c0,1.83-1.49,3.33-3.32,3.33c-1.83,0-3.33-1.49-3.33-3.32c0-1.83,1.49-3.33,3.32-3.33
		C59.33,9.17,60.83,10.67,60.83,12.49z"/>
</g>
<defs>
	<filter id="Adobe_OpacityMaskFilter" filterUnits="userSpaceOnUse" x="0" y="0" width="25" height="25">
		<feColorMatrix  type="matrix" values="1 0 0 0 0  0 1 0 0 0  0 0 1 0 0  0 0 0 1 0"/>
	</filter>
</defs>
<mask maskUnits="userSpaceOnUse" x="0" y="0" width="25" height="25" id="SVGID_7_">
	<g class="st7">
		<g>
			<path class="st8" d="M23.82,3.41c-0.21-0.2-0.41-0.4-0.61-0.61C23,2.57,22.77,2.36,22.46,2.25c-0.13,0-0.27,0-0.4,0
				c-0.12,0.05-0.27,0.08-0.35,0.17c-0.37,0.38-0.72,0.77-1.05,1.13c0.8,0.8,1.63,1.64,2.48,2.49c0.24-0.24,0.48-0.5,0.74-0.75
				c0.22-0.21,0.41-0.43,0.5-0.73c0-0.13,0-0.27,0-0.4C24.27,3.86,24.05,3.63,23.82,3.41z"/>
			<path class="st8" d="M15.67,15.19c-0.24,0.24-0.5,0.41-0.82,0.52c-0.82,0.27-1.64,0.55-2.46,0.81c-0.18,0.06-0.36,0.1-0.55,0.1
				c-1.26,0.04-2.15-1.16-1.76-2.37c0.26-0.8,0.54-1.6,0.8-2.4c0.12-0.36,0.31-0.67,0.58-0.94c1.73-1.73,3.46-3.46,5.19-5.18
				c0.05-0.05,0.13-0.09,0.2-0.13c-0.02-0.02-0.04-0.05-0.06-0.07c-0.06,0-0.12,0-0.18,0c-3.47,0-6.94,0-10.41,0
				c-1.35,0-2.29,0.95-2.29,2.3c0,4.19,0,8.38,0,12.57c0,1.37,0.94,2.31,2.31,2.31c4.19,0,8.38,0,12.57,0
				c1.37,0,2.31-0.94,2.31-2.31c0-3.46,0-6.93,0-10.39c0-0.06,0-0.13,0-0.23c-0.09,0.08-0.15,0.13-0.2,0.19
				C19.15,11.71,17.41,13.45,15.67,15.19z"/>
			<path class="st8" d="M19.61,4.47c-2.45,2.45-4.91,4.9-7.35,7.36c-0.09,0.09-0.17,0.23-0.21,0.35c-0.27,0.79-0.53,1.59-0.8,2.38
				c-0.09,0.26-0.08,0.49,0.12,0.68c0.2,0.2,0.44,0.22,0.7,0.13c0.77-0.26,1.55-0.51,2.32-0.78c0.17-0.06,0.34-0.16,0.46-0.29
				c2.41-2.4,4.82-4.82,7.23-7.23c0.05-0.05,0.1-0.1,0.13-0.14c-0.85-0.85-1.69-1.69-2.53-2.54C19.66,4.43,19.63,4.45,19.61,4.47z"
				/>
		</g>
	</g>
</mask>
<linearGradient id="SVGID_8_" gradientUnits="userSpaceOnUse" x1="0" y1="12.5" x2="25" y2="12.5">
	<stop  offset="0" style="stop-color:#F7931E"/>
	<stop  offset="0.1815" style="stop-color:#F79C1E"/>
	<stop  offset="0.4789" style="stop-color:#F9B51F"/>
	<stop  offset="0.8531" style="stop-color:#FBDC20"/>
	<stop  offset="1" style="stop-color:#FCEE21"/>
</linearGradient>
<rect class="st9" width="25" height="25"/>
<g>
</g>
<g>
</g>
<g>
</g>
<g>
</g>
<g>
</g>
</svg>
