<?xml version="1.0" encoding="utf-8"?>
<!-- Generator: Adobe Illustrator 25.0.0, SVG Export Plug-In . SVG Version: 6.00 Build 0)  -->
<svg version="1.1" id="Warstwa_1" xmlns="http://www.w3.org/2000/svg" xmlns:xlink="http://www.w3.org/1999/xlink" x="0px" y="0px"
	 viewBox="0 0 25 25" style="enable-background:new 0 0 25 25;" xml:space="preserve">
<style type="text/css">
	.st0{fill:url(#SVGID_1_);}
	.st1{fill:url(#SVGID_2_);}
	.st2{fill:url(#SVGID_3_);}
	.st3{fill:#FFFFFF;}
	.st4{fill:url(#SVGID_4_);}
	.st5{fill:url(#SVGID_5_);}
	.st6{filter:url(#Adobe_OpacityMaskFilter);}
	.st7{fill:#F2F2F2;}
	.st8{mask:url(#SVGID_6_);fill:url(#SVGID_7_);}
	.st9{fill:url(#SVGID_8_);}
</style>
<linearGradient id="SVGID_1_" gradientUnits="userSpaceOnUse" x1="-161.3253" y1="-50.9014" x2="-60.6887" y2="49.9788">
	<stop  offset="0" style="stop-color:#F7931E"/>
	<stop  offset="0.1815" style="stop-color:#F79C1E"/>
	<stop  offset="0.4789" style="stop-color:#F9B51F"/>
	<stop  offset="0.8531" style="stop-color:#FBDC20"/>
	<stop  offset="1" style="stop-color:#FCEE21"/>
</linearGradient>
<path class="st0" d="M-43.3,3.73C-45.74-4.2-49.36-11.75-54-18.63c-9.22-13.65-22.41-24.49-37.62-30.83
	c-10.2-4.25-21.28-6.46-32.46-7.1c-9.7-0.56-19.49,0-29.07,1.59c-2.66,0.44-5.53,1.09-7.23,3.18c-1.23,1.5-1.63,3.5-1.94,5.42
	c-2.16,13.31-1.15,26.66-1.15,40.06c0,41.06,33.31,74.33,74.38,74.27c5.63-0.01,10.17-4.64,10.17-10.27V28.62c0,0,39.35,0,39.35,0
	C-38.08,28.58-42.68,5.76-43.3,3.73z M-89.82,24.61h-4.61c-1.11,0-2.15-0.56-2.77-1.49L-112.1,0.6c-1.81-2.74-6.08-1.46-6.08,1.83
	v18.86c0,1.83-1.48,3.32-3.32,3.32h-3.07c-1.83,0-3.32-1.48-3.32-3.32v-41.82c0-1.83,1.48-3.32,3.32-3.32h4.6
	c1.11,0,2.15,0.56,2.77,1.49l14.9,22.57c1.81,2.74,6.08,1.46,6.08-1.83v-18.91c0-1.83,1.48-3.32,3.32-3.32h3.07
	c1.83,0,3.32,1.48,3.32,3.32v41.82C-86.51,23.12-87.99,24.61-89.82,24.61z"/>
<g>
	<linearGradient id="SVGID_2_" gradientUnits="userSpaceOnUse" x1="49.7271" y1="5.4053" x2="65.2729" y2="5.4053">
		<stop  offset="0" style="stop-color:#F7931E"/>
		<stop  offset="0.1815" style="stop-color:#F79C1E"/>
		<stop  offset="0.4789" style="stop-color:#F9B51F"/>
		<stop  offset="0.8531" style="stop-color:#FBDC20"/>
		<stop  offset="1" style="stop-color:#FCEE21"/>
	</linearGradient>
	<path class="st1" d="M58.47,2.6c0.23,0.06,0.46,0.1,0.68,0.19c0.99,0.38,1.62,1.09,1.91,2.1c0.05,0.19,0.13,0.23,0.31,0.23
		c0.58-0.02,1.16,0.01,1.71,0.22c0.96,0.36,1.66,1.01,2.09,1.94c0.25,0.54,0,0.93-0.61,0.93c-4.3,0-8.61,0-12.91,0
		c-0.43,0-0.86,0-1.29,0c-0.5,0-0.77-0.41-0.56-0.86c0.65-1.41,1.76-2.15,3.31-2.23c0.21-0.01,0.41-0.01,0.62,0
		c0.12,0.01,0.16-0.04,0.19-0.15c0.32-1.16,1.05-1.92,2.21-2.26c0.13-0.04,0.27-0.07,0.41-0.1C57.18,2.6,57.82,2.6,58.47,2.6z
		 M55.08,5.1c1.63,0,3.23,0,4.85,0c-0.27-0.7-0.72-1.2-1.45-1.29c-0.64-0.08-1.3-0.08-1.94,0C55.8,3.9,55.34,4.4,55.08,5.1z"/>
	<linearGradient id="SVGID_3_" gradientUnits="userSpaceOnUse" x1="51.0932" y1="15.8894" x2="63.9162" y2="15.8894">
		<stop  offset="0" style="stop-color:#F7931E"/>
		<stop  offset="0.1815" style="stop-color:#F79C1E"/>
		<stop  offset="0.4789" style="stop-color:#F9B51F"/>
		<stop  offset="0.8531" style="stop-color:#FBDC20"/>
		<stop  offset="1" style="stop-color:#FCEE21"/>
	</linearGradient>
	<path class="st2" d="M63.92,9.38c-0.06,0.8-0.11,1.59-0.17,2.38c-0.08,1.18-0.17,2.36-0.25,3.55c-0.11,1.55-0.22,3.11-0.33,4.66
		c-0.02,0.34-0.03,0.68-0.09,1.02c-0.14,0.79-0.84,1.4-1.64,1.4c-2.62,0.01-5.23,0.01-7.85,0c-0.88,0-1.62-0.73-1.68-1.61
		c-0.16-2.23-0.31-4.46-0.47-6.69c-0.11-1.52-0.22-3.04-0.33-4.57c0-0.04,0-0.09,0-0.15C55.36,9.38,59.63,9.38,63.92,9.38z
		 M56.07,15.6C56.07,15.6,56.07,15.6,56.07,15.6c-0.05-1.04-0.1-2.08-0.16-3.12c-0.02-0.33-0.29-0.57-0.6-0.55
		c-0.31,0.01-0.55,0.26-0.56,0.58c0,0.1,0.01,0.21,0.01,0.31c0.06,1.22,0.12,2.44,0.18,3.66c0.04,0.74,0.07,1.48,0.11,2.22
		c0.02,0.34,0.28,0.58,0.6,0.57c0.31-0.01,0.55-0.27,0.55-0.6c0-0.1-0.01-0.21-0.01-0.31C56.17,17.44,56.12,16.52,56.07,15.6z
		 M58.93,15.59C58.93,15.59,58.93,15.59,58.93,15.59c-0.05,0.92-0.09,1.84-0.14,2.76c0,0.1-0.01,0.19-0.01,0.29
		c0,0.35,0.23,0.61,0.55,0.63c0.33,0.02,0.59-0.23,0.61-0.59c0.06-1.22,0.13-2.44,0.19-3.66c0.04-0.83,0.09-1.66,0.12-2.49
		c0.01-0.34-0.24-0.6-0.57-0.61c-0.32-0.01-0.57,0.24-0.59,0.57C59.03,13.52,58.98,14.56,58.93,15.59z"/>
</g>
<path class="st3" d="M114.37,4.17c-0.11-0.31-0.32-0.54-0.55-0.76c-0.21-0.2-0.41-0.4-0.61-0.61c-0.22-0.23-0.45-0.45-0.76-0.55
	c0.64,0,1.28,0,1.92,0C114.37,2.89,114.37,3.53,114.37,4.17z"/>
<g>
	<linearGradient id="SVGID_4_" gradientUnits="userSpaceOnUse" x1="136.7009" y1="12.5" x2="158.2991" y2="12.5">
		<stop  offset="0" style="stop-color:#F7931E"/>
		<stop  offset="0.1815" style="stop-color:#F79C1E"/>
		<stop  offset="0.4789" style="stop-color:#F9B51F"/>
		<stop  offset="0.8531" style="stop-color:#FBDC20"/>
		<stop  offset="1" style="stop-color:#FCEE21"/>
	</linearGradient>
	<path class="st4" d="M158.3,12.75c-0.14,0.53-0.52,0.9-0.87,1.29c-1.42,1.57-3,2.95-4.86,4c-1.32,0.75-2.72,1.26-4.25,1.4
		c-1.47,0.13-2.88-0.09-4.25-0.63c-1.94-0.76-3.6-1.94-5.1-3.36c-0.66-0.63-1.28-1.31-1.88-1.99c-0.5-0.56-0.51-1.31-0.04-1.87
		c1.6-1.93,3.43-3.57,5.65-4.76c1.34-0.71,2.75-1.19,4.28-1.29c1.71-0.11,3.31,0.3,4.85,1.04c1.97,0.94,3.64,2.29,5.14,3.86
		c0.21,0.22,0.42,0.46,0.62,0.69c0.3,0.33,0.6,0.67,0.72,1.12C158.3,12.41,158.3,12.58,158.3,12.75z M152.15,12.51
		c0.01-2.57-2.07-4.65-4.64-4.65c-2.57,0-4.65,2.07-4.65,4.64c0,2.57,2.07,4.65,4.64,4.66C150.07,17.16,152.15,15.08,152.15,12.51z"
		/>
	<linearGradient id="SVGID_5_" gradientUnits="userSpaceOnUse" x1="144.1809" y1="12.5007" x2="150.8317" y2="12.5007">
		<stop  offset="0" style="stop-color:#F7931E"/>
		<stop  offset="0.1815" style="stop-color:#F79C1E"/>
		<stop  offset="0.4789" style="stop-color:#F9B51F"/>
		<stop  offset="0.8531" style="stop-color:#FBDC20"/>
		<stop  offset="1" style="stop-color:#FCEE21"/>
	</linearGradient>
	<path class="st5" d="M150.83,12.49c0,1.83-1.49,3.33-3.32,3.33c-1.83,0-3.33-1.49-3.33-3.32c0-1.83,1.49-3.33,3.32-3.33
		C149.33,9.17,150.83,10.67,150.83,12.49z"/>
</g>
<defs>
	<filter id="Adobe_OpacityMaskFilter" filterUnits="userSpaceOnUse" x="90" y="0" width="25" height="25">
		<feColorMatrix  type="matrix" values="1 0 0 0 0  0 1 0 0 0  0 0 1 0 0  0 0 0 1 0"/>
	</filter>
</defs>
<mask maskUnits="userSpaceOnUse" x="90" y="0" width="25" height="25" id="SVGID_6_">
	<g class="st6">
		<g>
			<path class="st7" d="M113.82,3.41c-0.21-0.2-0.41-0.4-0.61-0.61c-0.22-0.23-0.45-0.45-0.76-0.55c-0.13,0-0.27,0-0.4,0
				c-0.12,0.05-0.27,0.08-0.35,0.17c-0.37,0.38-0.72,0.77-1.05,1.13c0.8,0.8,1.63,1.64,2.48,2.49c0.24-0.24,0.48-0.5,0.74-0.75
				c0.22-0.21,0.41-0.43,0.5-0.73c0-0.13,0-0.27,0-0.4C114.27,3.86,114.05,3.63,113.82,3.41z"/>
			<path class="st7" d="M105.67,15.19c-0.24,0.24-0.5,0.41-0.82,0.52c-0.82,0.27-1.64,0.55-2.46,0.81c-0.18,0.06-0.36,0.1-0.55,0.1
				c-1.26,0.04-2.15-1.16-1.76-2.37c0.26-0.8,0.54-1.6,0.8-2.4c0.12-0.36,0.31-0.67,0.58-0.94c1.73-1.73,3.46-3.46,5.19-5.18
				c0.05-0.05,0.13-0.09,0.2-0.13c-0.02-0.02-0.04-0.05-0.06-0.07c-0.06,0-0.12,0-0.18,0c-3.47,0-6.94,0-10.41,0
				c-1.35,0-2.29,0.95-2.29,2.3c0,4.19,0,8.38,0,12.57c0,1.37,0.94,2.31,2.31,2.31c4.19,0,8.38,0,12.57,0
				c1.37,0,2.31-0.94,2.31-2.31c0-3.46,0-6.93,0-10.39c0-0.06,0-0.13,0-0.23c-0.09,0.08-0.15,0.13-0.2,0.19
				C109.15,11.71,107.41,13.45,105.67,15.19z"/>
			<path class="st7" d="M109.61,4.47c-2.45,2.45-4.91,4.9-7.35,7.36c-0.09,0.09-0.17,0.23-0.21,0.35c-0.27,0.79-0.53,1.59-0.8,2.38
				c-0.09,0.26-0.08,0.49,0.12,0.68c0.2,0.2,0.44,0.22,0.7,0.13c0.77-0.26,1.55-0.51,2.32-0.78c0.17-0.06,0.34-0.16,0.46-0.29
				c2.41-2.4,4.82-4.82,7.23-7.23c0.05-0.05,0.1-0.1,0.13-0.14c-0.85-0.85-1.69-1.69-2.53-2.54C109.66,4.43,109.63,4.45,109.61,4.47
				z"/>
		</g>
	</g>
</mask>
<linearGradient id="SVGID_7_" gradientUnits="userSpaceOnUse" x1="90" y1="12.5" x2="115" y2="12.5">
	<stop  offset="0" style="stop-color:#F7931E"/>
	<stop  offset="0.1815" style="stop-color:#F79C1E"/>
	<stop  offset="0.4789" style="stop-color:#F9B51F"/>
	<stop  offset="0.8531" style="stop-color:#FBDC20"/>
	<stop  offset="1" style="stop-color:#FCEE21"/>
</linearGradient>
<rect x="90" class="st8" width="25" height="25"/>
<g>
	<g>
		<linearGradient id="SVGID_8_" gradientUnits="userSpaceOnUse" x1="0" y1="12.5" x2="25" y2="12.5">
			<stop  offset="0" style="stop-color:#F7931E"/>
			<stop  offset="0.1815" style="stop-color:#F79C1E"/>
			<stop  offset="0.4789" style="stop-color:#F9B51F"/>
			<stop  offset="0.8531" style="stop-color:#FBDC20"/>
			<stop  offset="1" style="stop-color:#FCEE21"/>
		</linearGradient>
		<path class="st9" d="M12.5,0C5.6,0,0,5.6,0,12.5S5.6,25,12.5,25S25,19.4,25,12.5S19.4,0,12.5,0z M10.88,20.08
			c-0.11,0.2-0.28,0.35-0.51,0.42c-0.05,0.02-0.1,0.04-0.14,0.06H9.91C9.62,20.5,9.41,20.31,9.2,20.1
			c-0.37-0.38-0.75-0.76-1.16-1.16c-0.13,0.15-0.26,0.29-0.39,0.42c-0.18,0.18-0.35,0.36-0.53,0.53c-0.27,0.27-0.52,0.27-0.79,0
			c-0.41-0.41-0.82-0.82-1.22-1.22c-0.26-0.26-0.26-0.52,0-0.78c0.31-0.31,0.62-0.62,0.94-0.94C6,16.9,5.97,16.86,5.93,16.82
			c-0.4-0.4-0.8-0.79-1.19-1.19c-0.53-0.55-0.31-1.41,0.42-1.59c0.37-0.1,0.69,0.03,0.96,0.3c0.69,0.7,1.39,1.39,2.08,2.08
			c0.83,0.83,1.66,1.65,2.48,2.48C11.03,19.25,11.1,19.68,10.88,20.08z M13.54,18.76c-0.28,0.48-0.94,0.62-1.38,0.27
			c-0.06-0.05-0.12-0.1-0.18-0.16c-1.96-1.95-3.91-3.91-5.86-5.86c-0.21-0.21-0.35-0.44-0.35-0.75c0.01-0.39,0.19-0.68,0.55-0.85
			C6.67,11.26,7,11.3,7.3,11.53c0.05,0.04,0.1,0.09,0.15,0.14c1.96,1.96,3.92,3.92,5.88,5.88C13.7,17.92,13.78,18.35,13.54,18.76z
			 M12.06,14.89c-0.64-0.64-1.3-1.3-1.96-1.96c0.94-0.93,1.9-1.88,2.84-2.82c0.64,0.64,1.3,1.3,1.96,1.96
			C13.96,13.01,13,13.96,12.06,14.89z M18.67,13.58c-0.35,0.16-0.68,0.12-0.99-0.11c-0.05-0.04-0.1-0.09-0.15-0.14
			c-1.96-1.96-3.92-3.92-5.87-5.88c-0.36-0.36-0.44-0.8-0.22-1.2c0.27-0.49,0.94-0.63,1.39-0.28c0.06,0.05,0.12,0.1,0.18,0.16
			c1.96,1.95,3.91,3.91,5.86,5.86c0.2,0.2,0.35,0.43,0.34,0.73C19.2,13.12,19.03,13.41,18.67,13.58z M20.56,10.17
			c-0.08,0.31-0.22,0.58-0.52,0.73c-0.36,0.17-0.7,0.14-1.02-0.1c-0.05-0.04-0.1-0.09-0.15-0.14c-1.51-1.51-3.02-3.02-4.53-4.53
			c-0.35-0.35-0.44-0.77-0.25-1.16c0.28-0.55,0.99-0.71,1.45-0.3c0.4,0.36,0.76,0.75,1.14,1.13c0.08,0.08,0.16,0.17,0.25,0.26
			c0.33-0.33,0.64-0.64,0.96-0.96c0.11-0.11,0.24-0.21,0.4-0.18C18.4,4.94,18.54,5,18.63,5.08c0.44,0.42,0.86,0.85,1.28,1.28
			c0.23,0.23,0.23,0.5,0,0.73c-0.32,0.32-0.64,0.64-0.96,0.97c0.04,0.05,0.08,0.09,0.12,0.13c0.34,0.34,0.68,0.69,1.02,1.02
			c0.22,0.21,0.41,0.44,0.47,0.74V10.17z"/>
	</g>
</g>
<g>
</g>
<g>
</g>
<g>
</g>
<g>
</g>
<g>
</g>
</svg>
