<?xml version="1.0" encoding="utf-8"?>
<!-- Generator: Adobe Illustrator 25.0.0, SVG Export Plug-In . SVG Version: 6.00 Build 0)  -->
<svg version="1.1" id="Warstwa_1" xmlns="http://www.w3.org/2000/svg" xmlns:xlink="http://www.w3.org/1999/xlink" x="0px" y="0px"
	 viewBox="0 0 50 50" style="enable-background:new 0 0 50 50;" xml:space="preserve">
<style type="text/css">
	.st0{fill:#FFFFFF;}
</style>
<g>
	<g>
		<line x1="10.3" y1="11.5" x2="39.7" y2="11.5"/>
		<path class="st0" d="M38.7,12.5H11.3c-0.6,0-1-0.4-1-1v0c0-0.6,0.4-1,1-1h27.4c0.6,0,1,0.4,1,1v0C39.7,12.1,39.3,12.5,38.7,12.5z"
			/>
	</g>
	<g>
		<line x1="10.3" y1="18.2" x2="39.7" y2="18.2"/>
		<path class="st0" d="M38.7,19.2H11.3c-0.6,0-1-0.4-1-1v0c0-0.6,0.4-1,1-1h27.4c0.6,0,1,0.4,1,1v0C39.7,18.8,39.3,19.2,38.7,19.2z"
			/>
	</g>
	<g>
		<line x1="10.3" y1="25" x2="39.7" y2="25"/>
		<path class="st0" d="M38.7,26H11.3c-0.6,0-1-0.4-1-1v0c0-0.6,0.4-1,1-1h27.4c0.6,0,1,0.4,1,1v0C39.7,25.6,39.3,26,38.7,26z"/>
	</g>
	<g>
		<line x1="10.3" y1="31.7" x2="39.7" y2="31.7"/>
		<path class="st0" d="M38.7,32.8H11.3c-0.6,0-1-0.4-1-1v0c0-0.6,0.4-1,1-1h27.4c0.6,0,1,0.4,1,1v0C39.7,32.3,39.3,32.8,38.7,32.8z"
			/>
	</g>
	<g>
		<line x1="10.3" y1="38.5" x2="26" y2="38.5"/>
		<path class="st0" d="M25,39.5H11.3c-0.6,0-1-0.4-1-1l0,0c0-0.6,0.4-1,1-1H25c0.6,0,1,0.4,1,1l0,0C26,39.1,25.6,39.5,25,39.5z"/>
	</g>
</g>
</svg>
