<?xml version="1.0" encoding="utf-8"?>
<!-- Generator: Adobe Illustrator 25.0.0, SVG Export Plug-In . SVG Version: 6.00 Build 0)  -->
<svg version="1.1" id="Warstwa_1" xmlns="http://www.w3.org/2000/svg" xmlns:xlink="http://www.w3.org/1999/xlink" x="0px" y="0px"
	 viewBox="0 0 25 25" style="enable-background:new 0 0 25 25;" xml:space="preserve">
<style type="text/css">
	.st0{fill:url(#SVGID_1_);}
	.st1{fill:url(#SVGID_2_);}
	.st2{fill:url(#SVGID_3_);}
	.st3{fill:#FFFFFF;}
</style>
<linearGradient id="SVGID_1_" gradientUnits="userSpaceOnUse" x1="-235.2945" y1="35.3559" x2="-222.7043" y2="47.9766">
	<stop  offset="0" style="stop-color:#F7931E"/>
	<stop  offset="0.1815" style="stop-color:#F79C1E"/>
	<stop  offset="0.4789" style="stop-color:#F9B51F"/>
	<stop  offset="0.8531" style="stop-color:#FBDC20"/>
	<stop  offset="1" style="stop-color:#FCEE21"/>
</linearGradient>
<polygon class="st0" points="-235.31,60.52 -210.16,35.37 -235.31,35.37 "/>
<linearGradient id="SVGID_2_" gradientUnits="userSpaceOnUse" x1="-317.7066" y1="-44" x2="-217.0701" y2="56.8802">
	<stop  offset="0" style="stop-color:#F7931E"/>
	<stop  offset="0.1815" style="stop-color:#F79C1E"/>
	<stop  offset="0.4789" style="stop-color:#F9B51F"/>
	<stop  offset="0.8531" style="stop-color:#FBDC20"/>
	<stop  offset="1" style="stop-color:#FCEE21"/>
</linearGradient>
<path class="st1" d="M-199.68,10.63c-2.44-7.93-6.06-15.49-10.7-22.36C-219.6-25.38-232.8-36.22-248-42.55
	c-10.2-4.25-21.28-6.46-32.46-7.1c-9.7-0.56-19.49,0-29.07,1.59c-2.66,0.44-5.53,1.09-7.23,3.18c-1.23,1.5-1.63,3.5-1.94,5.42
	c-2.16,13.31-1.15,26.66-1.15,40.06c0,41.06,33.31,74.33,74.38,74.27c5.63-0.01,10.17-4.64,10.17-10.27V35.52c0,0,39.35,0,39.35,0
	C-194.46,35.48-199.06,12.66-199.68,10.63z M-246.2,31.51h-4.61c-1.11,0-2.15-0.56-2.77-1.49L-268.48,7.5
	c-1.81-2.74-6.08-1.46-6.08,1.83v18.86c0,1.83-1.48,3.32-3.32,3.32h-3.07c-1.83,0-3.32-1.48-3.32-3.32v-41.82
	c0-1.83,1.48-3.32,3.32-3.32h4.6c1.11,0,2.15,0.56,2.77,1.49l14.9,22.57c1.81,2.74,6.08,1.46,6.08-1.83v-18.91
	c0-1.83,1.48-3.32,3.32-3.32h3.07c1.83,0,3.32,1.48,3.32,3.32v41.82C-242.89,30.02-244.37,31.51-246.2,31.51z"/>
<linearGradient id="SVGID_3_" gradientUnits="userSpaceOnUse" x1="4.5539" y1="4.3373" x2="20.8545" y2="20.6774">
	<stop  offset="0" style="stop-color:#F7931E"/>
	<stop  offset="0.1815" style="stop-color:#F79C1E"/>
	<stop  offset="0.4789" style="stop-color:#F9B51F"/>
	<stop  offset="0.8531" style="stop-color:#FBDC20"/>
	<stop  offset="1" style="stop-color:#FCEE21"/>
</linearGradient>
<path class="st2" d="M12.69,0.97C6.33,0.97,1.17,6.13,1.17,12.5s5.16,11.52,11.52,11.52c6.37,0,11.53-5.15,11.53-11.52
	S19.06,0.97,12.69,0.97z M18.39,13.78h-4.42v4.42c0,0.7-0.57,1.27-1.28,1.27c-0.7,0-1.28-0.57-1.28-1.27v-4.42H7
	c-0.71,0-1.28-0.57-1.28-1.28c0-0.71,0.57-1.28,1.28-1.28h4.41V6.8c0-0.7,0.58-1.28,1.28-1.28c0.71,0,1.28,0.58,1.28,1.28v4.42h4.42
	c0.71,0,1.28,0.57,1.28,1.28C19.67,13.21,19.1,13.78,18.39,13.78z"/>
<path class="st3" d="M19.67,12.5c0,0.71-0.57,1.28-1.28,1.28h-4.42v4.42c0,0.7-0.57,1.27-1.28,1.27c-0.7,0-1.28-0.57-1.28-1.27
	v-4.42H7c-0.71,0-1.28-0.57-1.28-1.28c0-0.71,0.57-1.28,1.28-1.28h4.41V6.8c0-0.7,0.58-1.28,1.28-1.28c0.71,0,1.28,0.58,1.28,1.28
	v4.42h4.42C19.1,11.22,19.67,11.79,19.67,12.5z"/>
<g>
</g>
<g>
</g>
<g>
</g>
<g>
</g>
<g>
</g>
</svg>
