<?xml version="1.0" encoding="utf-8"?>
<!-- Generator: Adobe Illustrator 25.0.0, SVG Export Plug-In . SVG Version: 6.00 Build 0)  -->
<svg version="1.1" id="Warstwa_1" xmlns="http://www.w3.org/2000/svg" xmlns:xlink="http://www.w3.org/1999/xlink" x="0px" y="0px"
	 viewBox="0 0 25 25" style="enable-background:new 0 0 25 25;" xml:space="preserve">
<style type="text/css">
	.st0{fill:url(#SVGID_1_);}
	.st1{fill:url(#SVGID_2_);}
</style>
<linearGradient id="SVGID_1_" gradientUnits="userSpaceOnUse" x1="-161.3253" y1="-50.9014" x2="-60.6887" y2="49.9788">
	<stop  offset="0" style="stop-color:#F7931E"/>
	<stop  offset="0.1815" style="stop-color:#F79C1E"/>
	<stop  offset="0.4789" style="stop-color:#F9B51F"/>
	<stop  offset="0.8531" style="stop-color:#FBDC20"/>
	<stop  offset="1" style="stop-color:#FCEE21"/>
</linearGradient>
<path class="st0" d="M-43.3,3.73C-45.74-4.2-49.36-11.75-54-18.63c-9.22-13.65-22.41-24.49-37.62-30.83
	c-10.2-4.25-21.28-6.46-32.46-7.1c-9.7-0.56-19.49,0-29.07,1.59c-2.66,0.44-5.53,1.09-7.23,3.18c-1.23,1.5-1.63,3.5-1.94,5.42
	c-2.16,13.31-1.15,26.66-1.15,40.06c0,41.06,33.31,74.33,74.38,74.27c5.63-0.01,10.17-4.64,10.17-10.27V28.62c0,0,39.35,0,39.35,0
	C-38.08,28.58-42.68,5.76-43.3,3.73z M-89.82,24.61h-4.61c-1.11,0-2.15-0.56-2.77-1.49L-112.1,0.6c-1.81-2.74-6.08-1.46-6.08,1.83
	v18.86c0,1.83-1.48,3.32-3.32,3.32h-3.07c-1.83,0-3.32-1.48-3.32-3.32v-41.82c0-1.83,1.48-3.32,3.32-3.32h4.6
	c1.11,0,2.15,0.56,2.77,1.49l14.9,22.57c1.81,2.74,6.08,1.46,6.08-1.83v-18.91c0-1.83,1.48-3.32,3.32-3.32h3.07
	c1.83,0,3.32,1.48,3.32,3.32v41.82C-86.51,23.12-87.99,24.61-89.82,24.61z"/>
<g>
	<g>
		<linearGradient id="SVGID_2_" gradientUnits="userSpaceOnUse" x1="0" y1="12.5" x2="25" y2="12.5">
			<stop  offset="0" style="stop-color:#F7931E"/>
			<stop  offset="0.1815" style="stop-color:#F79C1E"/>
			<stop  offset="0.4789" style="stop-color:#F9B51F"/>
			<stop  offset="0.8531" style="stop-color:#FBDC20"/>
			<stop  offset="1" style="stop-color:#FCEE21"/>
		</linearGradient>
		<path class="st1" d="M15.01,8.91c0-0.21,0-0.41,0-0.62C15,7.21,14.29,6.25,13.27,5.92c-1.04-0.33-2.17,0.04-2.81,0.93
			C10.01,7.47,9.94,8.17,10,8.91H15.01z M9.99,10c0,0.34,0,0.68,0,1.02c0,0.31-0.2,0.53-0.48,0.53c-0.28,0-0.47-0.22-0.47-0.53
			c0-0.34,0-0.68,0-1.03c-0.48,0.14-0.8,0.72-0.7,1.26c0.11,0.63,0.64,1.05,1.26,1.01c0.6-0.04,1.09-0.54,1.11-1.14
			C10.72,10.58,10.39,10.06,9.99,10z M15.97,9.99v0.18c0,0.3,0.01,0.61,0,0.91c-0.01,0.36-0.38,0.58-0.7,0.41
			c-0.17-0.09-0.26-0.24-0.26-0.44c0-0.35,0-0.7,0-1.06c-0.46,0.13-0.78,0.68-0.71,1.21c0.08,0.6,0.57,1.05,1.16,1.06
			c0.61,0.01,1.1-0.41,1.21-1.03C16.76,10.7,16.46,10.14,15.97,9.99z M12.5,0C5.6,0,0,5.6,0,12.5S5.6,25,12.5,25S25,19.4,25,12.5
			S19.4,0,12.5,0z M18.85,20.16c-4.24,0-8.47,0-12.71,0c-0.21,0-0.24-0.03-0.22-0.23c0.14-1.76,0.27-3.53,0.41-5.29
			c0.14-1.84,0.28-3.69,0.42-5.53c0.01-0.15,0.07-0.2,0.21-0.2c0.63,0.01,1.27,0,1.9,0h0.17c0-0.22,0-0.43,0-0.63
			c0.01-1.53,1.03-2.87,2.5-3.3c0.21-0.06,0.42-0.1,0.64-0.14h0.66c0.03,0.01,0.05,0.02,0.08,0.03c1.3,0.19,2.22,0.88,2.77,2.06
			c0.21,0.44,0.29,0.92,0.29,1.41c0,0.19,0,0.37,0,0.57h0.18c0.63,0,1.27,0,1.9,0c0.13,0,0.19,0.04,0.2,0.18
			c0.12,1.65,0.25,3.3,0.38,4.95c0.15,1.96,0.3,3.92,0.45,5.89C19.09,20.13,19.06,20.16,18.85,20.16z"/>
	</g>
</g>
<g>
</g>
<g>
</g>
<g>
</g>
<g>
</g>
<g>
</g>
</svg>
