<?xml version="1.0" encoding="utf-8"?>
<!-- Generator: Adobe Illustrator 25.0.0, SVG Export Plug-In . SVG Version: 6.00 Build 0)  -->
<svg version="1.1" id="Warstwa_1" xmlns="http://www.w3.org/2000/svg" xmlns:xlink="http://www.w3.org/1999/xlink" x="0px" y="0px"
	 viewBox="0 0 25 25" style="enable-background:new 0 0 25 25;" xml:space="preserve">
<style type="text/css">
	.st0{fill:url(#SVGID_1_);}
	.st1{fill:url(#SVGID_2_);}
	.st2{fill:url(#SVGID_3_);}
	.st3{fill:url(#SVGID_4_);}
	.st4{fill:#FFFFFF;}
	.st5{fill:url(#SVGID_5_);}
	.st6{fill:url(#SVGID_6_);}
	.st7{filter:url(#Adobe_OpacityMaskFilter);}
	.st8{fill:#F2F2F2;}
	.st9{mask:url(#SVGID_7_);fill:url(#SVGID_8_);}
</style>
<g>
	<linearGradient id="SVGID_1_" gradientUnits="userSpaceOnUse" x1="4.7271" y1="5.4053" x2="20.2729" y2="5.4053">
		<stop  offset="0" style="stop-color:#F7931E"/>
		<stop  offset="0.1815" style="stop-color:#F79C1E"/>
		<stop  offset="0.4789" style="stop-color:#F9B51F"/>
		<stop  offset="0.8531" style="stop-color:#FBDC20"/>
		<stop  offset="1" style="stop-color:#FCEE21"/>
	</linearGradient>
	<path class="st0" d="M13.47,2.6c0.23,0.06,0.46,0.1,0.68,0.19c0.99,0.38,1.62,1.09,1.91,2.1c0.05,0.19,0.13,0.23,0.31,0.23
		c0.58-0.02,1.16,0.01,1.71,0.22c0.96,0.36,1.66,1.01,2.09,1.94c0.25,0.54,0,0.93-0.61,0.93c-4.3,0-8.61,0-12.91,0
		c-0.43,0-0.86,0-1.29,0c-0.5,0-0.77-0.41-0.56-0.86C5.45,5.94,6.56,5.2,8.11,5.12c0.21-0.01,0.41-0.01,0.62,0
		c0.12,0.01,0.16-0.04,0.19-0.15c0.32-1.16,1.05-1.92,2.21-2.26c0.13-0.04,0.27-0.07,0.41-0.1C12.18,2.6,12.82,2.6,13.47,2.6z
		 M10.08,5.1c1.63,0,3.23,0,4.85,0c-0.27-0.7-0.72-1.2-1.45-1.29c-0.64-0.08-1.3-0.08-1.94,0C10.8,3.9,10.34,4.4,10.08,5.1z"/>
	<linearGradient id="SVGID_2_" gradientUnits="userSpaceOnUse" x1="6.0932" y1="15.8894" x2="18.9162" y2="15.8894">
		<stop  offset="0" style="stop-color:#F7931E"/>
		<stop  offset="0.1815" style="stop-color:#F79C1E"/>
		<stop  offset="0.4789" style="stop-color:#F9B51F"/>
		<stop  offset="0.8531" style="stop-color:#FBDC20"/>
		<stop  offset="1" style="stop-color:#FCEE21"/>
	</linearGradient>
	<path class="st1" d="M18.92,9.38c-0.06,0.8-0.11,1.59-0.17,2.38c-0.08,1.18-0.17,2.36-0.25,3.55c-0.11,1.55-0.22,3.11-0.33,4.66
		c-0.02,0.34-0.03,0.68-0.09,1.02c-0.14,0.79-0.84,1.4-1.64,1.4c-2.62,0.01-5.23,0.01-7.85,0c-0.88,0-1.62-0.73-1.68-1.61
		c-0.16-2.23-0.31-4.46-0.47-6.69c-0.11-1.52-0.22-3.04-0.33-4.57c0-0.04,0-0.09,0-0.15C10.36,9.38,14.63,9.38,18.92,9.38z
		 M11.07,15.6C11.07,15.6,11.07,15.6,11.07,15.6c-0.05-1.04-0.1-2.08-0.16-3.12c-0.02-0.33-0.29-0.57-0.6-0.55
		c-0.31,0.01-0.55,0.26-0.56,0.58c0,0.1,0.01,0.21,0.01,0.31c0.06,1.22,0.12,2.44,0.18,3.66c0.04,0.74,0.07,1.48,0.11,2.22
		c0.02,0.34,0.28,0.58,0.6,0.57c0.31-0.01,0.55-0.27,0.55-0.6c0-0.1-0.01-0.21-0.01-0.31C11.17,17.44,11.12,16.52,11.07,15.6z
		 M13.93,15.59C13.93,15.59,13.93,15.59,13.93,15.59c-0.05,0.92-0.09,1.84-0.14,2.76c0,0.1-0.01,0.19-0.01,0.29
		c0,0.35,0.23,0.61,0.55,0.63c0.33,0.02,0.59-0.23,0.61-0.59c0.06-1.22,0.13-2.44,0.19-3.66c0.04-0.83,0.09-1.66,0.12-2.49
		c0.01-0.34-0.24-0.6-0.57-0.61c-0.32-0.01-0.57,0.24-0.59,0.57C14.03,13.52,13.98,14.56,13.93,15.59z"/>
</g>
</svg>
