<?xml version="1.0" encoding="utf-8"?>
<!-- Generator: Adobe Illustrator 25.0.0, SVG Export Plug-In . SVG Version: 6.00 Build 0)  -->
<svg version="1.1" id="Warstwa_1" xmlns="http://www.w3.org/2000/svg" xmlns:xlink="http://www.w3.org/1999/xlink" x="0px" y="0px"
	 viewBox="0 0 25 25" style="enable-background:new 0 0 25 25;" xml:space="preserve">
<style type="text/css">
	.st0{fill:url(#SVGID_1_);}
	.st1{fill:url(#SVGID_2_);}
	.st2{fill:url(#SVGID_3_);}
	.st3{fill:url(#SVGID_4_);}
	.st4{fill:#FFFFFF;}
	.st5{fill:url(#SVGID_5_);}
	.st6{fill:url(#SVGID_6_);}
	.st7{filter:url(#Adobe_OpacityMaskFilter);}
	.st8{fill:#F2F2F2;}
	.st9{mask:url(#SVGID_7_);fill:url(#SVGID_8_);}
</style>
<g>
	<linearGradient id="SVGID_1_" gradientUnits="userSpaceOnUse" x1="1.7009" y1="12.5" x2="23.299" y2="12.5">
		<stop  offset="0" style="stop-color:#F7931E"/>
		<stop  offset="0.1815" style="stop-color:#F79C1E"/>
		<stop  offset="0.4789" style="stop-color:#F9B51F"/>
		<stop  offset="0.8531" style="stop-color:#FBDC20"/>
		<stop  offset="1" style="stop-color:#FCEE21"/>
	</linearGradient>
	<path class="st0" d="M23.3,12.75c-0.14,0.53-0.52,0.9-0.87,1.29c-1.42,1.57-3,2.95-4.86,4c-1.32,0.75-2.72,1.26-4.25,1.4
		c-1.47,0.13-2.88-0.09-4.25-0.63c-1.94-0.76-3.6-1.94-5.1-3.36c-0.66-0.63-1.28-1.31-1.88-1.99c-0.5-0.56-0.51-1.31-0.04-1.87
		c1.6-1.93,3.43-3.57,5.65-4.76c1.34-0.71,2.75-1.19,4.28-1.29c1.71-0.11,3.31,0.3,4.85,1.04c1.97,0.94,3.64,2.29,5.14,3.86
		c0.21,0.22,0.42,0.46,0.62,0.69c0.3,0.33,0.6,0.67,0.72,1.12C23.3,12.41,23.3,12.58,23.3,12.75z M17.15,12.51
		c0.01-2.57-2.07-4.65-4.64-4.65c-2.57,0-4.65,2.07-4.65,4.64c0,2.57,2.07,4.65,4.64,4.66C15.07,17.16,17.15,15.08,17.15,12.51z"/>
	<linearGradient id="SVGID_2_" gradientUnits="userSpaceOnUse" x1="9.1809" y1="12.5007" x2="15.8317" y2="12.5007">
		<stop  offset="0" style="stop-color:#F7931E"/>
		<stop  offset="0.1815" style="stop-color:#F79C1E"/>
		<stop  offset="0.4789" style="stop-color:#F9B51F"/>
		<stop  offset="0.8531" style="stop-color:#FBDC20"/>
		<stop  offset="1" style="stop-color:#FCEE21"/>
	</linearGradient>
	<path class="st1" d="M15.83,12.49c0,1.83-1.49,3.33-3.32,3.33c-1.83,0-3.33-1.49-3.33-3.32c0-1.83,1.49-3.33,3.32-3.33
		C14.33,9.17,15.83,10.67,15.83,12.49z"/>
</g>
</svg>
